<svg xmlns="http://www.w3.org/2000/svg" xmlns:xlink="http://www.w3.org/1999/xlink" width="1920" zoomAndPan="magnify" viewBox="0 0 1440 809.999993" height="1080" preserveAspectRatio="xMidYMid meet" version="1.2"><defs><clipPath id="c1303106f3"><path d="M 651.632812 32.75 L 783.746094 32.75 L 783.746094 275.75 L 651.632812 275.75 Z M 651.632812 32.75 "/></clipPath><clipPath id="c31c708995"><path d="M 204 5 L 1205 5 L 1205 796.5 L 204 796.5 Z M 204 5 "/></clipPath></defs><g id="7892041092"><g clip-rule="nonzero" clip-path="url(#c1303106f3)"><path style=" stroke:none;fill-rule:nonzero;fill:#ffffff;fill-opacity:1;" d="M 651.632812 32.75 L 783.746094 32.75 L 783.746094 275.820312 L 651.632812 275.820312 Z M 651.632812 32.75 "/></g><path style=" stroke:none;fill-rule:nonzero;fill:#fcfcfc;fill-opacity:1;" d="M 1172.007812 432.667969 C 1225.054688 316.785156 1200.324219 163.578125 1099.070312 86.25 C 1033.148438 35.902344 946.746094 22.425781 864.046875 16.261719 C 717.929688 5.375 570.691406 12.414062 426.210938 36.671875 C 305.894531 56.871094 266.898438 118.007812 228.269531 236.011719 C 205.144531 306.660156 200.746094 386.378906 232.222656 453.71875 C 279.265625 554.367188 392.597656 604.667969 499.800781 633.613281 C 622.773438 666.816406 753.304688 683.074219 877.511719 654.828125 C 893.492188 651.195312 909.351562 646.726562 924.980469 641.46875 C 926.785156 643.589844 928.613281 645.6875 930.464844 647.75 C 982.019531 705.152344 1050.046875 744.640625 1116.875 783.167969 C 1085.660156 718.417969 1062.316406 649.898438 1047.269531 579.605469 C 1100.605469 541.679688 1144.769531 492.164062 1172.003906 432.664062 Z M 1172.007812 432.667969 "/><g clip-rule="nonzero" clip-path="url(#c31c708995)"><path style=" stroke:none;fill-rule:nonzero;fill:#161615;fill-opacity:1;" d="M 1129.160156 796.398438 L 1114.21875 787.78125 C 1047.800781 749.488281 979.125 709.894531 926.507812 651.3125 C 925.449219 650.136719 924.371094 648.914062 923.273438 647.648438 C 908.605469 652.46875 893.621094 656.625 878.6875 660.019531 C 835.707031 669.796875 790.527344 674.695312 742.777344 674.695312 C 668.1875 674.695312 587.277344 662.75 498.414062 638.753906 C 355.496094 600.164062 266.851562 540.375 227.398438 455.972656 C 198.296875 393.707031 196.808594 315.003906 223.210938 234.351562 C 239.65625 184.117188 259.453125 132.601562 292.667969 96.078125 C 308.28125 78.917969 326.25 65.46875 347.605469 54.964844 C 369.417969 44.238281 394.839844 36.535156 425.328125 31.417969 C 570.945312 6.976562 718.683594 0.0898438 864.441406 10.953125 C 943.789062 16.867188 1034.097656 29.933594 1102.296875 82.015625 C 1151.316406 119.449219 1185.523438 176.964844 1198.625 243.976562 C 1211.285156 308.746094 1203.554688 376.546875 1176.847656 434.882812 C 1151.042969 491.257812 1108.335938 542.023438 1053.210938 581.898438 C 1068.257812 650.898438 1091.28125 717.816406 1121.667969 780.855469 Z M 926.699219 635.277344 L 929.03125 638.019531 C 930.871094 640.179688 932.6875 642.257812 934.425781 644.191406 C 982.070312 697.246094 1043.816406 734.75 1104.832031 770.070312 C 1077.164062 709.765625 1056.070312 646.152344 1042.066406 580.722656 L 1041.332031 577.296875 L 1044.1875 575.269531 C 1099.171875 536.167969 1141.695312 486.09375 1167.167969 430.449219 L 1172.007812 432.667969 L 1167.167969 430.449219 C 1221.472656 311.828125 1190.136719 162.496094 1095.839844 90.484375 C 1029.851562 40.089844 941.4375 27.371094 863.648438 21.574219 C 718.738281 10.773438 571.859375 17.621094 427.085938 41.925781 C 310.398438 61.515625 271.636719 120.652344 233.324219 237.667969 C 207.769531 315.734375 209.09375 391.660156 237.042969 451.460938 C 275.078125 532.847656 361.484375 590.746094 501.183594 628.46875 C 645.230469 667.363281 767.941406 674.28125 876.332031 649.632812 C 892.074219 646.050781 907.867188 641.605469 923.285156 636.421875 L 926.699219 635.273438 Z M 926.699219 635.277344 "/></g></g></svg>